<svg xmlns="http://www.w3.org/2000/svg" xmlns:xlink="http://www.w3.org/1999/xlink" width="412" zoomAndPan="magnify" viewBox="0 0 309 91.5" height="122" preserveAspectRatio="xMidYMid meet" version="1.0"><defs><g/><clipPath id="a49ee9c46b"><path d="M 0.839844 4 L 89.605469 4 L 89.605469 86 L 0.839844 86 Z M 0.839844 4 " clip-rule="nonzero"/></clipPath></defs><g clip-path="url(#a49ee9c46b)"><path fill="#000000" d="M 27.984375 55.261719 C 27.1875 56.0625 26.726562 57.183594 26.730469 58.375 C 26.730469 59.5625 27.203125 60.683594 28.050781 61.523438 L 37.214844 69.796875 C 37.972656 70.484375 38.03125 71.648438 37.347656 72.410156 C 36.664062 73.171875 35.492188 73.222656 34.738281 72.542969 L 25.511719 64.207031 C 23.894531 62.613281 23.039062 60.570312 23.03125 58.386719 C 23.023438 56.207031 23.871094 54.148438 25.417969 52.605469 L 34.71875 43.929688 C 35.460938 43.234375 36.636719 43.273438 37.328125 44.019531 C 38.023438 44.765625 37.988281 45.9375 37.242188 46.628906 L 27.988281 55.261719 Z M 89.605469 21.238281 L 89.605469 69.320312 C 89.605469 78.496094 82.136719 85.964844 72.960938 85.964844 L 17.484375 85.964844 C 8.308594 85.964844 0.839844 78.496094 0.839844 69.320312 L 0.839844 21.238281 C 0.839844 12.0625 8.308594 4.597656 17.484375 4.597656 L 72.960938 4.597656 C 82.136719 4.597656 89.605469 12.0625 89.605469 21.238281 Z M 4.539062 21.238281 L 4.539062 30.484375 L 85.90625 30.484375 L 85.90625 21.238281 C 85.90625 14.101562 80.097656 8.292969 72.960938 8.292969 L 17.484375 8.292969 C 10.34375 8.292969 4.539062 14.101562 4.539062 21.238281 Z M 85.90625 69.320312 L 85.90625 34.183594 L 4.539062 34.183594 L 4.539062 69.320312 C 4.539062 76.457031 10.34375 82.265625 17.484375 82.265625 L 72.960938 82.265625 C 80.097656 82.265625 85.90625 76.457031 85.90625 69.320312 Z M 15.632812 23.089844 C 17.675781 23.089844 19.332031 21.429688 19.332031 19.390625 C 19.332031 17.347656 17.675781 15.691406 15.632812 15.691406 C 13.59375 15.691406 11.933594 17.347656 11.933594 19.390625 C 11.933594 21.429688 13.59375 23.089844 15.632812 23.089844 Z M 26.730469 23.089844 C 28.769531 23.089844 30.429688 21.429688 30.429688 19.390625 C 30.429688 17.347656 28.769531 15.691406 26.730469 15.691406 C 24.6875 15.691406 23.03125 17.347656 23.03125 19.390625 C 23.03125 21.429688 24.6875 23.089844 26.730469 23.089844 Z M 37.824219 23.089844 C 39.867188 23.089844 41.523438 21.429688 41.523438 19.390625 C 41.523438 17.347656 39.867188 15.691406 37.824219 15.691406 C 35.785156 15.691406 34.125 17.347656 34.125 19.390625 C 34.125 21.429688 35.785156 23.089844 37.824219 23.089844 Z M 55.730469 43.929688 C 54.988281 43.234375 53.808594 43.273438 53.117188 44.019531 C 52.421875 44.765625 52.460938 45.9375 53.207031 46.628906 L 62.414062 55.21875 C 63.257812 56.0625 63.71875 57.179688 63.714844 58.375 C 63.714844 59.5625 63.242188 60.683594 62.453125 61.464844 L 53.230469 69.796875 C 52.472656 70.484375 52.410156 71.648438 53.097656 72.410156 C 53.78125 73.171875 54.949219 73.222656 55.707031 72.542969 L 64.996094 64.148438 C 66.546875 62.613281 67.40625 60.566406 67.414062 58.382812 C 67.421875 56.203125 66.574219 54.144531 64.984375 52.558594 L 55.730469 43.925781 Z M 55.730469 43.929688 " fill-opacity="1" fill-rule="nonzero"/></g><g fill="#000000" fill-opacity="1"><g transform="translate(97.718826, 63.958948)"><g><path d="M 22 -35.390625 C 17.664062 -35.390625 14.296875 -33.992188 11.890625 -31.203125 C 9.484375 -28.421875 8.28125 -24.601562 8.28125 -19.75 C 8.28125 -14.957031 9.535156 -11.101562 12.046875 -8.1875 C 14.554688 -5.269531 17.945312 -3.8125 22.21875 -3.8125 C 27.707031 -3.8125 31.828125 -6.519531 34.578125 -11.9375 L 38.921875 -9.78125 C 37.304688 -6.40625 35.039062 -3.835938 32.125 -2.078125 C 29.207031 -0.316406 25.820312 0.5625 21.96875 0.5625 C 18.03125 0.5625 14.617188 -0.253906 11.734375 -1.890625 C 8.859375 -3.535156 6.664062 -5.878906 5.15625 -8.921875 C 3.644531 -11.972656 2.890625 -15.582031 2.890625 -19.75 C 2.890625 -25.988281 4.570312 -30.875 7.9375 -34.40625 C 11.3125 -37.945312 15.976562 -39.71875 21.9375 -39.71875 C 26.101562 -39.71875 29.582031 -38.898438 32.375 -37.265625 C 35.175781 -35.640625 37.238281 -33.226562 38.5625 -30.03125 L 33.53125 -28.359375 C 32.625 -30.640625 31.164062 -32.378906 29.15625 -33.578125 C 27.144531 -34.785156 24.757812 -35.390625 22 -35.390625 Z M 22 -35.390625 "/></g></g></g><g fill="#000000" fill-opacity="1"><g transform="translate(138.793354, 63.958948)"><g><path d="M 8.71875 -30.0625 L 8.71875 -11 C 8.71875 -9.019531 8.910156 -7.484375 9.296875 -6.390625 C 9.691406 -5.296875 10.3125 -4.507812 11.15625 -4.03125 C 12.007812 -3.550781 13.265625 -3.3125 14.921875 -3.3125 C 17.328125 -3.3125 19.222656 -4.132812 20.609375 -5.78125 C 21.992188 -7.425781 22.6875 -9.710938 22.6875 -12.640625 L 22.6875 -30.0625 L 27.6875 -30.0625 L 27.6875 -6.421875 C 27.6875 -2.921875 27.742188 -0.78125 27.859375 0 L 23.140625 0 C 23.117188 -0.09375 23.097656 -0.34375 23.078125 -0.75 C 23.066406 -1.15625 23.046875 -1.617188 23.015625 -2.140625 C 22.984375 -2.671875 22.953125 -3.671875 22.921875 -5.140625 L 22.828125 -5.140625 C 21.679688 -3.066406 20.351562 -1.597656 18.84375 -0.734375 C 17.332031 0.128906 15.457031 0.5625 13.21875 0.5625 C 9.925781 0.5625 7.515625 -0.253906 5.984375 -1.890625 C 4.453125 -3.535156 3.6875 -6.25 3.6875 -10.03125 L 3.6875 -30.0625 Z M 8.71875 -30.0625 "/></g></g></g><g fill="#000000" fill-opacity="1"><g transform="translate(170.425462, 63.958948)"><g><path d="M 29.25 -15.171875 C 29.25 -4.679688 25.5625 0.5625 18.1875 0.5625 C 15.914062 0.5625 14.023438 0.148438 12.515625 -0.671875 C 11.003906 -1.503906 9.773438 -2.835938 8.828125 -4.671875 L 8.78125 -4.671875 C 8.78125 -4.097656 8.742188 -3.222656 8.671875 -2.046875 C 8.597656 -0.867188 8.539062 -0.1875 8.5 0 L 3.671875 0 C 3.773438 -1 3.828125 -3.0625 3.828125 -6.1875 L 3.828125 -41.21875 L 8.828125 -41.21875 L 8.828125 -29.46875 C 8.828125 -28.269531 8.789062 -26.851562 8.71875 -25.21875 L 8.828125 -25.21875 C 9.753906 -27.144531 10.984375 -28.523438 12.515625 -29.359375 C 14.046875 -30.191406 15.9375 -30.609375 18.1875 -30.609375 C 21.988281 -30.609375 24.78125 -29.328125 26.5625 -26.765625 C 28.351562 -24.210938 29.25 -20.347656 29.25 -15.171875 Z M 24 -15 C 24 -19.207031 23.441406 -22.21875 22.328125 -24.03125 C 21.222656 -25.84375 19.421875 -26.75 16.921875 -26.75 C 14.097656 -26.75 12.039062 -25.785156 10.75 -23.859375 C 9.46875 -21.929688 8.828125 -18.875 8.828125 -14.6875 C 8.828125 -10.75 9.457031 -7.835938 10.71875 -5.953125 C 11.976562 -4.078125 14.023438 -3.140625 16.859375 -3.140625 C 19.378906 -3.140625 21.195312 -4.066406 22.3125 -5.921875 C 23.4375 -7.785156 24 -10.8125 24 -15 Z M 24 -15 "/></g></g></g><g fill="#000000" fill-opacity="1"><g transform="translate(202.05757, 63.958948)"><g><path d="M 3.8125 -36.453125 L 3.8125 -41.21875 L 8.8125 -41.21875 L 8.8125 -36.453125 Z M 3.8125 0 L 3.8125 -30.0625 L 8.8125 -30.0625 L 8.8125 0 Z M 3.8125 0 "/></g></g></g><g fill="#000000" fill-opacity="1"><g transform="translate(214.69375, 63.958948)"><g><path d="M 13.4375 0.5625 C 9.625 0.5625 6.828125 -0.722656 5.046875 -3.296875 C 3.273438 -5.878906 2.390625 -9.742188 2.390625 -14.890625 C 2.390625 -25.367188 6.070312 -30.609375 13.4375 -30.609375 C 15.71875 -30.609375 17.597656 -30.203125 19.078125 -29.390625 C 20.566406 -28.585938 21.8125 -27.253906 22.8125 -25.390625 L 22.859375 -25.390625 C 22.859375 -25.941406 22.894531 -26.898438 22.96875 -28.265625 C 23.039062 -29.628906 23.113281 -30.359375 23.1875 -30.453125 L 28 -30.453125 C 27.875 -29.359375 27.8125 -26.625 27.8125 -22.25 L 27.8125 11.8125 L 22.8125 11.8125 L 22.8125 -0.390625 L 22.921875 -4.9375 L 22.859375 -4.9375 C 21.859375 -2.957031 20.625 -1.546875 19.15625 -0.703125 C 17.695312 0.140625 15.789062 0.5625 13.4375 0.5625 Z M 22.8125 -15.390625 C 22.8125 -19.296875 22.171875 -22.191406 20.890625 -24.078125 C 19.609375 -25.972656 17.570312 -26.921875 14.78125 -26.921875 C 12.238281 -26.921875 10.410156 -25.972656 9.296875 -24.078125 C 8.191406 -22.191406 7.640625 -19.1875 7.640625 -15.0625 C 7.640625 -10.851562 8.195312 -7.84375 9.3125 -6.03125 C 10.4375 -4.21875 12.238281 -3.3125 14.71875 -3.3125 C 17.550781 -3.3125 19.609375 -4.316406 20.890625 -6.328125 C 22.171875 -8.347656 22.8125 -11.367188 22.8125 -15.390625 Z M 22.8125 -15.390625 "/></g></g></g><g fill="#000000" fill-opacity="1"><g transform="translate(246.325857, 63.958948)"><g><path d="M 3.8125 -36.453125 L 3.8125 -41.21875 L 8.8125 -41.21875 L 8.8125 -36.453125 Z M 3.8125 0 L 3.8125 -30.0625 L 8.8125 -30.0625 L 8.8125 0 Z M 3.8125 0 "/></g></g></g><g fill="#000000" fill-opacity="1"><g transform="translate(258.962038, 63.958948)"><g><path d="M 22.921875 0 L 22.921875 -19.0625 C 22.921875 -21.039062 22.722656 -22.578125 22.328125 -23.671875 C 21.941406 -24.765625 21.320312 -25.550781 20.46875 -26.03125 C 19.613281 -26.507812 18.363281 -26.75 16.71875 -26.75 C 14.3125 -26.75 12.410156 -25.925781 11.015625 -24.28125 C 9.628906 -22.632812 8.9375 -20.347656 8.9375 -17.421875 L 8.9375 0 L 3.9375 0 L 3.9375 -23.640625 C 3.9375 -27.140625 3.882812 -29.28125 3.78125 -30.0625 L 8.5 -30.0625 C 8.519531 -29.96875 8.535156 -29.71875 8.546875 -29.3125 C 8.566406 -28.90625 8.59375 -28.4375 8.625 -27.90625 C 8.65625 -27.375 8.6875 -26.378906 8.71875 -24.921875 L 8.8125 -24.921875 C 9.957031 -26.992188 11.285156 -28.457031 12.796875 -29.3125 C 14.304688 -30.175781 16.179688 -30.609375 18.421875 -30.609375 C 21.710938 -30.609375 24.117188 -29.785156 25.640625 -28.140625 C 27.171875 -26.503906 27.9375 -23.800781 27.9375 -20.03125 L 27.9375 0 Z M 22.921875 0 "/></g></g></g></svg>