<svg xmlns="http://www.w3.org/2000/svg" xmlns:xlink="http://www.w3.org/1999/xlink" width="500" zoomAndPan="magnify" viewBox="0 0 375 374.999991" height="500" preserveAspectRatio="xMidYMid meet" version="1.0"><defs><g/><clipPath id="a3d6009add"><path d="M 119.292969 72 L 255.792969 72 L 255.792969 198 L 119.292969 198 Z M 119.292969 72 " clip-rule="nonzero"/></clipPath></defs><g clip-path="url(#a3d6009add)"><path fill="#000000" d="M 161.035156 150.742188 C 159.8125 151.96875 159.101562 153.699219 159.105469 155.53125 C 159.105469 157.355469 159.835938 159.078125 161.136719 160.371094 L 175.230469 173.09375 C 176.394531 174.152344 176.488281 175.945312 175.433594 177.109375 C 174.382812 178.28125 172.578125 178.359375 171.417969 177.3125 L 157.234375 164.5 C 154.75 162.046875 153.429688 158.902344 153.417969 155.546875 C 153.40625 152.191406 154.710938 149.03125 157.085938 146.660156 L 171.390625 133.316406 C 172.535156 132.246094 174.34375 132.308594 175.40625 133.453125 C 176.476562 134.601562 176.417969 136.402344 175.269531 137.46875 L 161.039062 150.742188 Z M 255.792969 98.421875 L 255.792969 172.359375 C 255.792969 186.472656 244.308594 197.953125 230.199219 197.953125 L 144.886719 197.953125 C 130.777344 197.953125 119.292969 186.472656 119.292969 172.359375 L 119.292969 98.421875 C 119.292969 84.3125 130.777344 72.828125 144.886719 72.828125 L 230.199219 72.828125 C 244.308594 72.828125 255.792969 84.3125 255.792969 98.421875 Z M 124.980469 98.421875 L 124.980469 112.640625 L 250.105469 112.640625 L 250.105469 98.421875 C 250.105469 87.445312 241.175781 78.515625 230.199219 78.515625 L 144.886719 78.515625 C 133.910156 78.515625 124.980469 87.445312 124.980469 98.421875 Z M 250.105469 172.359375 L 250.105469 118.328125 L 124.980469 118.328125 L 124.980469 172.359375 C 124.980469 183.335938 133.910156 192.265625 144.886719 192.265625 L 230.199219 192.265625 C 241.175781 192.265625 250.105469 183.335938 250.105469 172.359375 Z M 142.042969 101.265625 C 145.183594 101.265625 147.730469 98.71875 147.730469 95.578125 C 147.730469 92.441406 145.183594 89.890625 142.042969 89.890625 C 138.902344 89.890625 136.355469 92.441406 136.355469 95.578125 C 136.355469 98.71875 138.902344 101.265625 142.042969 101.265625 Z M 159.105469 101.265625 C 162.246094 101.265625 164.792969 98.71875 164.792969 95.578125 C 164.792969 92.441406 162.246094 89.890625 159.105469 89.890625 C 155.964844 89.890625 153.417969 92.441406 153.417969 95.578125 C 153.417969 98.71875 155.964844 101.265625 159.105469 101.265625 Z M 176.167969 101.265625 C 179.308594 101.265625 181.855469 98.71875 181.855469 95.578125 C 181.855469 92.441406 179.308594 89.890625 176.167969 89.890625 C 173.027344 89.890625 170.480469 92.441406 170.480469 95.578125 C 170.480469 98.71875 173.027344 101.265625 176.167969 101.265625 Z M 203.703125 133.316406 C 202.5625 132.246094 200.75 132.308594 199.6875 133.453125 C 198.617188 134.601562 198.675781 136.402344 199.824219 137.46875 L 213.980469 150.671875 C 215.277344 151.96875 215.988281 153.695312 215.980469 155.53125 C 215.980469 157.355469 215.253906 159.078125 214.042969 160.28125 L 199.855469 173.09375 C 198.691406 174.152344 198.601562 175.945312 199.652344 177.109375 C 200.703125 178.28125 202.5 178.359375 203.667969 177.3125 L 217.949219 164.410156 C 220.335938 162.046875 221.65625 158.898438 221.667969 155.542969 C 221.679688 152.1875 220.378906 149.023438 217.933594 146.585938 L 203.703125 133.308594 Z M 203.703125 133.316406 " fill-opacity="1" fill-rule="nonzero"/></g><g fill="#000000" fill-opacity="1"><g transform="translate(39.769154, 285.605921)"><g><path d="M 33.703125 -54.203125 C 27.066406 -54.203125 21.898438 -52.066406 18.203125 -47.796875 C 14.515625 -43.535156 12.671875 -37.6875 12.671875 -30.25 C 12.671875 -22.90625 14.59375 -17 18.4375 -12.53125 C 22.28125 -8.0625 27.484375 -5.828125 34.046875 -5.828125 C 42.441406 -5.828125 48.75 -9.984375 52.96875 -18.296875 L 59.609375 -14.984375 C 57.140625 -9.816406 53.671875 -5.882812 49.203125 -3.1875 C 44.734375 -0.5 39.550781 0.84375 33.65625 0.84375 C 27.613281 0.84375 22.382812 -0.410156 17.96875 -2.921875 C 13.5625 -5.429688 10.203125 -9.015625 7.890625 -13.671875 C 5.578125 -18.335938 4.421875 -23.863281 4.421875 -30.25 C 4.421875 -39.8125 7 -47.300781 12.15625 -52.71875 C 17.320312 -58.132812 24.472656 -60.84375 33.609375 -60.84375 C 39.992188 -60.84375 45.328125 -59.59375 49.609375 -57.09375 C 53.890625 -54.601562 57.039062 -50.90625 59.0625 -46 L 51.359375 -43.4375 C 49.960938 -46.925781 47.722656 -49.59375 44.640625 -51.4375 C 41.566406 -53.28125 37.921875 -54.203125 33.703125 -54.203125 Z M 33.703125 -54.203125 "/></g></g></g><g fill="#000000" fill-opacity="1"><g transform="translate(102.682725, 285.605921)"><g><path d="M 13.359375 -46.03125 L 13.359375 -16.84375 C 13.359375 -13.8125 13.65625 -11.457031 14.25 -9.78125 C 14.84375 -8.113281 15.789062 -6.910156 17.09375 -6.171875 C 18.40625 -5.429688 20.320312 -5.0625 22.84375 -5.0625 C 26.53125 -5.0625 29.4375 -6.320312 31.5625 -8.84375 C 33.695312 -11.375 34.765625 -14.878906 34.765625 -19.359375 L 34.765625 -46.03125 L 42.421875 -46.03125 L 42.421875 -9.828125 C 42.421875 -4.460938 42.503906 -1.1875 42.671875 0 L 35.4375 0 C 35.414062 -0.144531 35.390625 -0.523438 35.359375 -1.140625 C 35.328125 -1.765625 35.289062 -2.484375 35.25 -3.296875 C 35.207031 -4.109375 35.160156 -5.632812 35.109375 -7.875 L 34.96875 -7.875 C 33.21875 -4.695312 31.1875 -2.445312 28.875 -1.125 C 26.5625 0.1875 23.6875 0.84375 20.25 0.84375 C 15.195312 0.84375 11.5 -0.410156 9.15625 -2.921875 C 6.820312 -5.429688 5.65625 -9.578125 5.65625 -15.359375 L 5.65625 -46.03125 Z M 13.359375 -46.03125 "/></g></g></g><g fill="#000000" fill-opacity="1"><g transform="translate(151.133407, 285.605921)"><g><path d="M 44.796875 -23.234375 C 44.796875 -7.179688 39.15625 0.84375 27.875 0.84375 C 24.382812 0.84375 21.484375 0.210938 19.171875 -1.046875 C 16.859375 -2.304688 14.976562 -4.335938 13.53125 -7.140625 L 13.453125 -7.140625 C 13.453125 -6.265625 13.394531 -4.925781 13.28125 -3.125 C 13.164062 -1.320312 13.078125 -0.28125 13.015625 0 L 5.609375 0 C 5.785156 -1.53125 5.875 -4.691406 5.875 -9.484375 L 5.875 -63.140625 L 13.53125 -63.140625 L 13.53125 -45.140625 C 13.53125 -43.296875 13.472656 -41.128906 13.359375 -38.640625 L 13.53125 -38.640625 C 14.945312 -41.585938 16.820312 -43.695312 19.15625 -44.96875 C 21.5 -46.25 24.40625 -46.890625 27.875 -46.890625 C 33.6875 -46.890625 37.957031 -44.929688 40.6875 -41.015625 C 43.425781 -37.097656 44.796875 -31.171875 44.796875 -23.234375 Z M 36.765625 -22.96875 C 36.765625 -29.414062 35.910156 -34.023438 34.203125 -36.796875 C 32.503906 -39.578125 29.738281 -40.96875 25.90625 -40.96875 C 21.59375 -40.96875 18.453125 -39.492188 16.484375 -36.546875 C 14.515625 -33.597656 13.53125 -28.921875 13.53125 -22.515625 C 13.53125 -16.472656 14.492188 -12.007812 16.421875 -9.125 C 18.347656 -6.25 21.484375 -4.8125 25.828125 -4.8125 C 29.679688 -4.8125 32.46875 -6.234375 34.1875 -9.078125 C 35.90625 -11.929688 36.765625 -16.5625 36.765625 -22.96875 Z M 36.765625 -22.96875 "/></g></g></g><g fill="#000000" fill-opacity="1"><g transform="translate(199.584088, 285.605921)"><g><path d="M 5.828125 -55.828125 L 5.828125 -63.140625 L 13.484375 -63.140625 L 13.484375 -55.828125 Z M 5.828125 0 L 5.828125 -46.03125 L 13.484375 -46.03125 L 13.484375 0 Z M 5.828125 0 "/></g></g></g><g fill="#000000" fill-opacity="1"><g transform="translate(218.938838, 285.605921)"><g><path d="M 20.59375 0.84375 C 14.75 0.84375 10.460938 -1.125 7.734375 -5.0625 C 5.015625 -9.007812 3.65625 -14.925781 3.65625 -22.8125 C 3.65625 -38.863281 9.300781 -46.890625 20.59375 -46.890625 C 24.082031 -46.890625 26.960938 -46.269531 29.234375 -45.03125 C 31.503906 -43.800781 33.40625 -41.753906 34.9375 -38.890625 L 35.015625 -38.890625 C 35.015625 -39.742188 35.070312 -41.210938 35.1875 -43.296875 C 35.300781 -45.378906 35.414062 -46.492188 35.53125 -46.640625 L 42.890625 -46.640625 C 42.691406 -44.960938 42.59375 -40.773438 42.59375 -34.078125 L 42.59375 18.078125 L 34.9375 18.078125 L 34.9375 -0.59375 L 35.109375 -7.578125 L 35.015625 -7.578125 C 33.484375 -4.535156 31.597656 -2.367188 29.359375 -1.078125 C 27.117188 0.203125 24.195312 0.84375 20.59375 0.84375 Z M 34.9375 -23.578125 C 34.9375 -29.554688 33.957031 -33.992188 32 -36.890625 C 30.039062 -39.785156 26.921875 -41.234375 22.640625 -41.234375 C 18.753906 -41.234375 15.957031 -39.785156 14.25 -36.890625 C 12.550781 -33.992188 11.703125 -29.382812 11.703125 -23.0625 C 11.703125 -16.625 12.554688 -12.015625 14.265625 -9.234375 C 15.984375 -6.453125 18.742188 -5.0625 22.546875 -5.0625 C 26.890625 -5.0625 30.039062 -6.609375 32 -9.703125 C 33.957031 -12.796875 34.9375 -17.421875 34.9375 -23.578125 Z M 34.9375 -23.578125 "/></g></g></g><g fill="#000000" fill-opacity="1"><g transform="translate(267.38952, 285.605921)"><g><path d="M 5.828125 -55.828125 L 5.828125 -63.140625 L 13.484375 -63.140625 L 13.484375 -55.828125 Z M 5.828125 0 L 5.828125 -46.03125 L 13.484375 -46.03125 L 13.484375 0 Z M 5.828125 0 "/></g></g></g><g fill="#000000" fill-opacity="1"><g transform="translate(286.744269, 285.605921)"><g><path d="M 35.109375 0 L 35.109375 -29.1875 C 35.109375 -32.21875 34.804688 -34.570312 34.203125 -36.25 C 33.609375 -37.925781 32.660156 -39.128906 31.359375 -39.859375 C 30.054688 -40.597656 28.140625 -40.96875 25.609375 -40.96875 C 21.921875 -40.96875 19.015625 -39.707031 16.890625 -37.1875 C 14.765625 -34.664062 13.703125 -31.160156 13.703125 -26.671875 L 13.703125 0 L 6.046875 0 L 6.046875 -36.203125 C 6.046875 -41.566406 5.957031 -44.84375 5.78125 -46.03125 L 13.015625 -46.03125 C 13.046875 -45.894531 13.070312 -45.515625 13.09375 -44.890625 C 13.125 -44.265625 13.160156 -43.546875 13.203125 -42.734375 C 13.253906 -41.929688 13.304688 -40.410156 13.359375 -38.171875 L 13.484375 -38.171875 C 15.242188 -41.347656 17.28125 -43.59375 19.59375 -44.90625 C 21.90625 -46.226562 24.773438 -46.890625 28.203125 -46.890625 C 33.253906 -46.890625 36.945312 -45.632812 39.28125 -43.125 C 41.625 -40.613281 42.796875 -36.460938 42.796875 -30.671875 L 42.796875 0 Z M 35.109375 0 "/></g></g></g></svg>