<svg xmlns="http://www.w3.org/2000/svg" xmlns:xlink="http://www.w3.org/1999/xlink" width="500" zoomAndPan="magnify" viewBox="0 0 375 374.999991" height="500" preserveAspectRatio="xMidYMid meet" version="1.0"><defs><g/><clipPath id="d6affe6e24"><path d="M 40.335938 153 L 129.585938 153 L 129.585938 236 L 40.335938 236 Z M 40.335938 153 " clip-rule="nonzero"/></clipPath></defs><g clip-path="url(#d6affe6e24)"><path fill="#000000" d="M 67.628906 204.300781 C 66.828125 205.105469 66.363281 206.234375 66.367188 207.433594 C 66.367188 208.625 66.84375 209.753906 67.695312 210.597656 L 76.910156 218.914062 C 77.671875 219.609375 77.730469 220.777344 77.042969 221.542969 C 76.355469 222.308594 75.175781 222.359375 74.417969 221.675781 L 65.144531 213.296875 C 63.519531 211.695312 62.65625 209.636719 62.648438 207.445312 C 62.640625 205.25 63.492188 203.183594 65.046875 201.632812 L 74.398438 192.90625 C 75.148438 192.207031 76.332031 192.25 77.027344 192.996094 C 77.726562 193.746094 77.6875 194.925781 76.9375 195.621094 L 67.632812 204.300781 Z M 129.585938 170.09375 L 129.585938 218.4375 C 129.585938 227.664062 122.078125 235.171875 112.851562 235.171875 L 57.070312 235.171875 C 47.84375 235.171875 40.335938 227.664062 40.335938 218.4375 L 40.335938 170.09375 C 40.335938 160.867188 47.84375 153.359375 57.070312 153.359375 L 112.851562 153.359375 C 122.078125 153.359375 129.585938 160.867188 129.585938 170.09375 Z M 44.054688 170.09375 L 44.054688 179.390625 L 125.867188 179.390625 L 125.867188 170.09375 C 125.867188 162.914062 120.03125 157.078125 112.851562 157.078125 L 57.070312 157.078125 C 49.894531 157.078125 44.054688 162.914062 44.054688 170.09375 Z M 125.867188 218.4375 L 125.867188 183.109375 L 44.054688 183.109375 L 44.054688 218.4375 C 44.054688 225.613281 49.894531 231.453125 57.070312 231.453125 L 112.851562 231.453125 C 120.03125 231.453125 125.867188 225.613281 125.867188 218.4375 Z M 55.210938 171.953125 C 57.265625 171.953125 58.929688 170.285156 58.929688 168.234375 C 58.929688 166.179688 57.265625 164.515625 55.210938 164.515625 C 53.160156 164.515625 51.492188 166.179688 51.492188 168.234375 C 51.492188 170.285156 53.160156 171.953125 55.210938 171.953125 Z M 66.367188 171.953125 C 68.421875 171.953125 70.085938 170.285156 70.085938 168.234375 C 70.085938 166.179688 68.421875 164.515625 66.367188 164.515625 C 64.316406 164.515625 62.648438 166.179688 62.648438 168.234375 C 62.648438 170.285156 64.316406 171.953125 66.367188 171.953125 Z M 77.523438 171.953125 C 79.578125 171.953125 81.242188 170.285156 81.242188 168.234375 C 81.242188 166.179688 79.578125 164.515625 77.523438 164.515625 C 75.472656 164.515625 73.804688 166.179688 73.804688 168.234375 C 73.804688 170.285156 75.472656 171.953125 77.523438 171.953125 Z M 95.527344 192.90625 C 94.78125 192.207031 93.597656 192.25 92.902344 192.996094 C 92.203125 193.746094 92.238281 194.925781 92.992188 195.621094 L 102.246094 204.257812 C 103.09375 205.105469 103.558594 206.230469 103.554688 207.433594 C 103.554688 208.625 103.078125 209.753906 102.289062 210.539062 L 93.011719 218.914062 C 92.25 219.609375 92.191406 220.777344 92.878906 221.542969 C 93.566406 222.308594 94.742188 222.359375 95.503906 221.675781 L 104.84375 213.238281 C 106.402344 211.695312 107.265625 209.632812 107.273438 207.441406 C 107.28125 205.246094 106.429688 203.179688 104.832031 201.582031 L 95.527344 192.902344 Z M 95.527344 192.90625 " fill-opacity="1" fill-rule="nonzero"/></g><g fill="#000000" fill-opacity="1"><g transform="translate(139.234543, 214.035395)"><g><path d="M 22.109375 -35.578125 C 17.753906 -35.578125 14.367188 -34.175781 11.953125 -31.375 C 9.535156 -28.570312 8.328125 -24.734375 8.328125 -19.859375 C 8.328125 -15.035156 9.585938 -11.15625 12.109375 -8.21875 C 14.628906 -5.289062 18.039062 -3.828125 22.34375 -3.828125 C 27.851562 -3.828125 31.992188 -6.550781 34.765625 -12 L 39.125 -9.828125 C 37.5 -6.441406 35.21875 -3.863281 32.28125 -2.09375 C 29.351562 -0.320312 25.957031 0.5625 22.09375 0.5625 C 18.125 0.5625 14.691406 -0.257812 11.796875 -1.90625 C 8.898438 -3.5625 6.691406 -5.921875 5.171875 -8.984375 C 3.660156 -12.046875 2.90625 -15.671875 2.90625 -19.859375 C 2.90625 -26.128906 4.597656 -31.039062 7.984375 -34.59375 C 11.367188 -38.15625 16.0625 -39.9375 22.0625 -39.9375 C 26.25 -39.9375 29.75 -39.113281 32.5625 -37.46875 C 35.375 -35.832031 37.441406 -33.40625 38.765625 -30.1875 L 33.703125 -28.515625 C 32.785156 -30.796875 31.316406 -32.539062 29.296875 -33.75 C 27.285156 -34.96875 24.890625 -35.578125 22.109375 -35.578125 Z M 22.109375 -35.578125 "/></g></g></g><g fill="#000000" fill-opacity="1"><g transform="translate(180.53067, 214.035395)"><g><path d="M 8.765625 -30.21875 L 8.765625 -11.0625 C 8.765625 -9.0625 8.957031 -7.515625 9.34375 -6.421875 C 9.738281 -5.328125 10.363281 -4.535156 11.21875 -4.046875 C 12.082031 -3.566406 13.34375 -3.328125 15 -3.328125 C 17.414062 -3.328125 19.320312 -4.15625 20.71875 -5.8125 C 22.113281 -7.46875 22.8125 -9.765625 22.8125 -12.703125 L 22.8125 -30.21875 L 27.84375 -30.21875 L 27.84375 -6.453125 C 27.84375 -2.929688 27.894531 -0.78125 28 0 L 23.265625 0 C 23.242188 -0.09375 23.222656 -0.34375 23.203125 -0.75 C 23.179688 -1.164062 23.15625 -1.632812 23.125 -2.15625 C 23.101562 -2.6875 23.070312 -3.691406 23.03125 -5.171875 L 22.953125 -5.171875 C 21.796875 -3.078125 20.457031 -1.597656 18.9375 -0.734375 C 17.425781 0.128906 15.546875 0.5625 13.296875 0.5625 C 9.984375 0.5625 7.554688 -0.257812 6.015625 -1.90625 C 4.484375 -3.5625 3.71875 -6.285156 3.71875 -10.078125 L 3.71875 -30.21875 Z M 8.765625 -30.21875 "/></g></g></g><g fill="#000000" fill-opacity="1"><g transform="translate(212.333435, 214.035395)"><g><path d="M 29.40625 -15.25 C 29.40625 -4.707031 25.703125 0.5625 18.296875 0.5625 C 16.003906 0.5625 14.097656 0.148438 12.578125 -0.671875 C 11.054688 -1.503906 9.820312 -2.84375 8.875 -4.6875 L 8.828125 -4.6875 C 8.828125 -4.113281 8.785156 -3.234375 8.703125 -2.046875 C 8.628906 -0.867188 8.578125 -0.1875 8.546875 0 L 3.6875 0 C 3.800781 -1.007812 3.859375 -3.085938 3.859375 -6.234375 L 3.859375 -41.4375 L 8.875 -41.4375 L 8.875 -29.625 C 8.875 -28.414062 8.835938 -26.992188 8.765625 -25.359375 L 8.875 -25.359375 C 9.8125 -27.296875 11.046875 -28.679688 12.578125 -29.515625 C 14.117188 -30.347656 16.023438 -30.765625 18.296875 -30.765625 C 22.109375 -30.765625 24.910156 -29.476562 26.703125 -26.90625 C 28.503906 -24.34375 29.40625 -20.457031 29.40625 -15.25 Z M 24.125 -15.078125 C 24.125 -19.304688 23.566406 -22.332031 22.453125 -24.15625 C 21.335938 -25.976562 19.519531 -26.890625 17 -26.890625 C 14.175781 -26.890625 12.113281 -25.921875 10.8125 -23.984375 C 9.519531 -22.046875 8.875 -18.972656 8.875 -14.765625 C 8.875 -10.804688 9.503906 -7.878906 10.765625 -5.984375 C 12.035156 -4.097656 14.097656 -3.15625 16.953125 -3.15625 C 19.484375 -3.15625 21.3125 -4.085938 22.4375 -5.953125 C 23.5625 -7.828125 24.125 -10.867188 24.125 -15.078125 Z M 24.125 -15.078125 "/></g></g></g><g fill="#000000" fill-opacity="1"><g transform="translate(244.136199, 214.035395)"><g><path d="M 3.828125 -36.640625 L 3.828125 -41.4375 L 8.859375 -41.4375 L 8.859375 -36.640625 Z M 3.828125 0 L 3.828125 -30.21875 L 8.859375 -30.21875 L 8.859375 0 Z M 3.828125 0 "/></g></g></g><g fill="#000000" fill-opacity="1"><g transform="translate(256.840552, 214.035395)"><g><path d="M 13.515625 0.5625 C 9.679688 0.5625 6.867188 -0.726562 5.078125 -3.3125 C 3.296875 -5.90625 2.40625 -9.789062 2.40625 -14.96875 C 2.40625 -25.5 6.109375 -30.765625 13.515625 -30.765625 C 15.804688 -30.765625 17.695312 -30.359375 19.1875 -29.546875 C 20.675781 -28.742188 21.921875 -27.398438 22.921875 -25.515625 L 22.984375 -25.515625 C 22.984375 -26.078125 23.019531 -27.039062 23.09375 -28.40625 C 23.164062 -29.78125 23.238281 -30.515625 23.3125 -30.609375 L 28.140625 -30.609375 C 28.015625 -29.503906 27.953125 -26.753906 27.953125 -22.359375 L 27.953125 11.875 L 22.921875 11.875 L 22.921875 -0.390625 L 23.03125 -4.96875 L 22.984375 -4.96875 C 21.972656 -2.976562 20.734375 -1.554688 19.265625 -0.703125 C 17.796875 0.140625 15.878906 0.5625 13.515625 0.5625 Z M 22.921875 -15.46875 C 22.921875 -19.394531 22.28125 -22.304688 21 -24.203125 C 19.71875 -26.109375 17.671875 -27.0625 14.859375 -27.0625 C 12.304688 -27.0625 10.46875 -26.109375 9.34375 -24.203125 C 8.226562 -22.304688 7.671875 -19.285156 7.671875 -15.140625 C 7.671875 -10.910156 8.234375 -7.882812 9.359375 -6.0625 C 10.492188 -4.238281 12.304688 -3.328125 14.796875 -3.328125 C 17.648438 -3.328125 19.71875 -4.335938 21 -6.359375 C 22.28125 -8.390625 22.921875 -11.425781 22.921875 -15.46875 Z M 22.921875 -15.46875 "/></g></g></g><g fill="#000000" fill-opacity="1"><g transform="translate(288.643317, 214.035395)"><g><path d="M 3.828125 -36.640625 L 3.828125 -41.4375 L 8.859375 -41.4375 L 8.859375 -36.640625 Z M 3.828125 0 L 3.828125 -30.21875 L 8.859375 -30.21875 L 8.859375 0 Z M 3.828125 0 "/></g></g></g><g fill="#000000" fill-opacity="1"><g transform="translate(301.347669, 214.035395)"><g><path d="M 23.03125 0 L 23.03125 -19.15625 C 23.03125 -21.144531 22.832031 -22.6875 22.4375 -23.78125 C 22.050781 -24.882812 21.429688 -25.675781 20.578125 -26.15625 C 19.722656 -26.644531 18.46875 -26.890625 16.8125 -26.890625 C 14.394531 -26.890625 12.484375 -26.0625 11.078125 -24.40625 C 9.679688 -22.75 8.984375 -20.453125 8.984375 -17.515625 L 8.984375 0 L 3.96875 0 L 3.96875 -23.765625 C 3.96875 -27.285156 3.910156 -29.4375 3.796875 -30.21875 L 8.546875 -30.21875 C 8.566406 -30.125 8.582031 -29.867188 8.59375 -29.453125 C 8.613281 -29.046875 8.640625 -28.578125 8.671875 -28.046875 C 8.703125 -27.515625 8.734375 -26.515625 8.765625 -25.046875 L 8.859375 -25.046875 C 10.003906 -27.128906 11.335938 -28.601562 12.859375 -29.46875 C 14.378906 -30.332031 16.265625 -30.765625 18.515625 -30.765625 C 21.828125 -30.765625 24.25 -29.941406 25.78125 -28.296875 C 27.320312 -26.648438 28.09375 -23.929688 28.09375 -20.140625 L 28.09375 0 Z M 23.03125 0 "/></g></g></g></svg>